# MagicaVoxel @ Ephtracy

# group
o 

# material
mtllib Game.mtl
usemtl palette

# normals
vn -1 0 0
vn 1 0 0
vn 0 0 1
vn 0 0 -1
vn 0 -1 0
vn 0 1 0

# texcoords
vt 0.822266 0.5
vt 0.845703 0.5
vt 0.931641 0.5
vt 0.974609 0.5

# verts
v -0.4 0 0.5
v -0.4 0 -0.5
v -0.4 0.1 0.4
v -0.4 0.1 -0.4
v -0.4 0.2 0.4
v -0.4 0.2 -0.4
v -0.4 0.3 0.5
v -0.4 0.3 -0.5
v -0.3 0.1 0.4
v -0.3 0.1 -0.4
v -0.3 0.2 0.4
v -0.3 0.2 -0.4
v -0.3 0.3 0.3
v -0.3 0.3 0.2
v -0.3 0.3 -0.4
v -0.3 0.5 0.3
v -0.3 0.5 0.2
v -0.3 0.6 0.2
v -0.3 0.6 -0.4
v -0.2 0.6 0.1
v -0.2 0.6 -0.3
v -0.2 0.7 0.1
v -0.2 0.7 -0.3
v -0.1 0.6 0.2
v -0.1 0.6 0.1
v -0.1 0.7 0.2
v -0.1 0.7 0.1
v 0.1 0.6 0.2
v 0.1 0.6 0.1
v 0.1 0.7 0.2
v 0.1 0.7 0.1
v 0.2 0.6 0.1
v 0.2 0.6 -0.3
v 0.2 0.7 0.1
v 0.2 0.7 -0.3
v 0.3 0.1 0.4
v 0.3 0.1 -0.4
v 0.3 0.2 0.4
v 0.3 0.2 -0.4
v 0.3 0.3 0.3
v 0.3 0.3 0.2
v 0.3 0.3 -0.4
v 0.3 0.5 0.3
v 0.3 0.5 0.2
v 0.3 0.6 0.2
v 0.3 0.6 -0.4
v 0.4 0 0.5
v 0.4 0 -0.5
v 0.4 0.1 0.4
v 0.4 0.1 -0.4
v 0.4 0.2 0.4
v 0.4 0.2 -0.4
v 0.4 0.3 0.5
v 0.4 0.3 -0.5
v -0.4 0 0.5
v -0.4 0.3 0.5
v -0.3 0 0.5
v -0.3 0.3 0.5
v 0.3 0 0.5
v 0.3 0.3 0.5
v 0.4 0 0.5
v 0.4 0.3 0.5
v -0.3 0.3 0.3
v -0.3 0.5 0.3
v 0.3 0.3 0.3
v 0.3 0.5 0.3
v -0.3 0.5 0.2
v -0.3 0.6 0.2
v -0.1 0.6 0.2
v -0.1 0.7 0.2
v 0.1 0.6 0.2
v 0.1 0.7 0.2
v 0.3 0.5 0.2
v 0.3 0.6 0.2
v -0.2 0.6 0.1
v -0.2 0.7 0.1
v -0.1 0.6 0.1
v -0.1 0.7 0.1
v 0.1 0.6 0.1
v 0.1 0.7 0.1
v 0.2 0.6 0.1
v 0.2 0.7 0.1
v -0.4 0.1 -0.4
v -0.4 0.2 -0.4
v -0.3 0.1 -0.4
v -0.3 0.2 -0.4
v 0.3 0.1 -0.4
v 0.3 0.2 -0.4
v 0.4 0.1 -0.4
v 0.4 0.2 -0.4
v -0.4 0.1 0.4
v -0.4 0.2 0.4
v -0.3 0.1 0.4
v -0.3 0.2 0.4
v 0.3 0.1 0.4
v 0.3 0.2 0.4
v 0.4 0.1 0.4
v 0.4 0.2 0.4
v -0.2 0.6 -0.3
v -0.2 0.7 -0.3
v 0.2 0.6 -0.3
v 0.2 0.7 -0.3
v -0.3 0.3 -0.4
v -0.3 0.6 -0.4
v 0.3 0.3 -0.4
v 0.3 0.6 -0.4
v -0.4 0 -0.5
v -0.4 0.3 -0.5
v -0.3 0 -0.5
v -0.3 0.3 -0.5
v -0.2 0.1 -0.5
v -0.2 0.2 -0.5
v -0.1 0.1 -0.5
v -0.1 0.2 -0.5
v 0.1 0.1 -0.5
v 0.1 0.2 -0.5
v 0.2 0.1 -0.5
v 0.2 0.2 -0.5
v 0.3 0 -0.5
v 0.3 0.3 -0.5
v 0.4 0 -0.5
v 0.4 0.3 -0.5
v -0.4 0 0.5
v -0.3 0 0.5
v 0.3 0 0.5
v 0.4 0 0.5
v -0.3 0 0.4
v 0.3 0 0.4
v -0.4 0 -0.5
v -0.3 0 -0.5
v 0.3 0 -0.5
v 0.4 0 -0.5
v -0.4 0.2 0.4
v -0.3 0.2 0.4
v 0.3 0.2 0.4
v 0.4 0.2 0.4
v -0.4 0.2 -0.4
v -0.3 0.2 -0.4
v 0.3 0.2 -0.4
v 0.4 0.2 -0.4
v -0.4 0.1 0.4
v -0.3 0.1 0.4
v 0.3 0.1 0.4
v 0.4 0.1 0.4
v -0.4 0.1 -0.4
v -0.3 0.1 -0.4
v 0.3 0.1 -0.4
v 0.4 0.1 -0.4
v -0.4 0.3 0.5
v -0.3 0.3 0.5
v 0.3 0.3 0.5
v 0.4 0.3 0.5
v -0.3 0.3 0.3
v 0.3 0.3 0.3
v -0.3 0.3 0.2
v 0.3 0.3 0.2
v -0.3 0.3 -0.4
v 0.3 0.3 -0.4
v -0.4 0.3 -0.5
v -0.3 0.3 -0.5
v 0.3 0.3 -0.5
v 0.4 0.3 -0.5
v -0.3 0.5 0.3
v 0.3 0.5 0.3
v -0.3 0.5 0.2
v 0.3 0.5 0.2
v -0.3 0.6 0.2
v -0.1 0.6 0.2
v 0.1 0.6 0.2
v 0.3 0.6 0.2
v -0.2 0.6 0.1
v -0.1 0.6 0.1
v 0.1 0.6 0.1
v 0.2 0.6 0.1
v -0.2 0.6 -0.3
v 0.2 0.6 -0.3
v -0.3 0.6 -0.4
v 0.3 0.6 -0.4
v -0.1 0.7 0.2
v 0.1 0.7 0.2
v -0.2 0.7 0.1
v -0.1 0.7 0.1
v 0.1 0.7 0.1
v 0.2 0.7 0.1
v -0.2 0.7 -0.3
v 0.2 0.7 -0.3

# faces
f 3/4/1 2/4/1 1/4/1
f 4/4/1 2/4/1 3/4/1
f 5/4/1 3/4/1 1/4/1
f 6/4/1 2/4/1 4/4/1
f 7/4/1 5/4/1 1/4/1
f 7/4/1 6/4/1 5/4/1
f 8/4/1 2/4/1 6/4/1
f 8/4/1 6/4/1 7/4/1
f 11/3/1 10/3/1 9/3/1
f 12/3/1 10/3/1 11/3/1
f 16/3/1 14/3/1 13/3/1
f 17/1/1 15/1/1 14/1/1
f 17/3/1 14/3/1 16/3/1
f 18/1/1 15/1/1 17/1/1
f 19/1/1 15/1/1 18/1/1
f 22/1/1 21/1/1 20/1/1
f 23/1/1 21/1/1 22/1/1
f 26/1/1 25/1/1 24/1/1
f 27/1/1 25/1/1 26/1/1
f 28/1/2 29/1/2 30/1/2
f 30/1/2 29/1/2 31/1/2
f 32/1/2 33/1/2 34/1/2
f 34/1/2 33/1/2 35/1/2
f 36/3/2 37/3/2 38/3/2
f 38/3/2 37/3/2 39/3/2
f 40/3/2 41/3/2 43/3/2
f 41/1/2 42/1/2 44/1/2
f 43/3/2 41/3/2 44/3/2
f 44/1/2 42/1/2 45/1/2
f 45/1/2 42/1/2 46/1/2
f 47/4/2 48/4/2 49/4/2
f 49/4/2 48/4/2 50/4/2
f 47/4/2 49/4/2 51/4/2
f 50/4/2 48/4/2 52/4/2
f 47/4/2 51/4/2 53/4/2
f 51/4/2 52/4/2 53/4/2
f 52/4/2 48/4/2 54/4/2
f 53/4/2 52/4/2 54/4/2
f 57/4/3 56/4/3 55/4/3
f 58/4/3 56/4/3 57/4/3
f 59/1/3 58/1/3 57/1/3
f 60/1/3 58/1/3 59/1/3
f 61/4/3 60/4/3 59/4/3
f 62/4/3 60/4/3 61/4/3
f 65/3/3 64/3/3 63/3/3
f 66/3/3 64/3/3 65/3/3
f 69/1/3 68/1/3 67/1/3
f 71/1/3 69/1/3 67/1/3
f 71/1/3 70/1/3 69/1/3
f 72/1/3 70/1/3 71/1/3
f 73/1/3 71/1/3 67/1/3
f 74/1/3 71/1/3 73/1/3
f 77/1/3 76/1/3 75/1/3
f 78/1/3 76/1/3 77/1/3
f 81/1/3 80/1/3 79/1/3
f 82/1/3 80/1/3 81/1/3
f 85/4/3 84/4/3 83/4/3
f 86/4/3 84/4/3 85/4/3
f 89/4/3 88/4/3 87/4/3
f 90/4/3 88/4/3 89/4/3
f 91/4/4 92/4/4 93/4/4
f 93/4/4 92/4/4 94/4/4
f 95/4/4 96/4/4 97/4/4
f 97/4/4 96/4/4 98/4/4
f 99/1/4 100/1/4 101/1/4
f 101/1/4 100/1/4 102/1/4
f 103/1/4 104/1/4 105/1/4
f 105/1/4 104/1/4 106/1/4
f 107/4/4 108/4/4 109/4/4
f 109/4/4 108/4/4 110/4/4
f 109/3/4 110/3/4 111/3/4
f 111/3/4 110/3/4 112/3/4
f 109/3/4 111/3/4 113/3/4
f 111/2/4 112/2/4 113/2/4
f 112/3/4 110/3/4 114/3/4
f 113/2/4 112/2/4 114/2/4
f 109/3/4 113/3/4 115/3/4
f 113/3/4 114/3/4 115/3/4
f 114/3/4 110/3/4 116/3/4
f 115/3/4 114/3/4 116/3/4
f 109/3/4 115/3/4 117/3/4
f 115/2/4 116/2/4 117/2/4
f 116/3/4 110/3/4 118/3/4
f 117/2/4 116/2/4 118/2/4
f 109/3/4 117/3/4 119/3/4
f 117/3/4 118/3/4 119/3/4
f 118/3/4 110/3/4 120/3/4
f 119/3/4 118/3/4 120/3/4
f 119/4/4 120/4/4 121/4/4
f 121/4/4 120/4/4 122/4/4
f 127/4/5 124/4/5 123/4/5
f 127/1/5 125/1/5 124/1/5
f 128/4/5 126/4/5 125/4/5
f 128/1/5 125/1/5 127/1/5
f 129/4/5 127/4/5 123/4/5
f 130/3/5 128/3/5 127/3/5
f 130/4/5 127/4/5 129/4/5
f 131/4/5 126/4/5 128/4/5
f 131/3/5 128/3/5 130/3/5
f 132/4/5 126/4/5 131/4/5
f 137/4/5 134/4/5 133/4/5
f 138/4/5 134/4/5 137/4/5
f 139/4/5 136/4/5 135/4/5
f 140/4/5 136/4/5 139/4/5
f 141/4/6 142/4/6 145/4/6
f 145/4/6 142/4/6 146/4/6
f 143/4/6 144/4/6 147/4/6
f 147/4/6 144/4/6 148/4/6
f 149/4/6 150/4/6 153/4/6
f 150/1/6 151/1/6 153/1/6
f 151/4/6 152/4/6 154/4/6
f 153/1/6 151/1/6 154/1/6
f 149/4/6 153/4/6 155/4/6
f 154/4/6 152/4/6 156/4/6
f 149/4/6 155/4/6 157/4/6
f 156/4/6 152/4/6 158/4/6
f 149/4/6 157/4/6 159/4/6
f 157/3/6 158/3/6 160/3/6
f 159/4/6 157/4/6 160/4/6
f 158/4/6 152/4/6 161/4/6
f 160/3/6 158/3/6 161/3/6
f 161/4/6 152/4/6 162/4/6
f 163/3/6 164/3/6 165/3/6
f 165/3/6 164/3/6 166/3/6
f 167/1/6 168/1/6 171/1/6
f 171/1/6 168/1/6 172/1/6
f 169/1/6 170/1/6 173/1/6
f 173/1/6 170/1/6 174/1/6
f 167/1/6 171/1/6 175/1/6
f 174/1/6 170/1/6 176/1/6
f 167/1/6 175/1/6 177/1/6
f 175/1/6 176/1/6 177/1/6
f 176/1/6 170/1/6 178/1/6
f 177/1/6 176/1/6 178/1/6
f 179/1/6 180/1/6 182/1/6
f 182/1/6 180/1/6 183/1/6
f 181/1/6 182/1/6 185/1/6
f 183/1/6 184/1/6 185/1/6
f 182/1/6 183/1/6 185/1/6
f 185/1/6 184/1/6 186/1/6
