# MagicaVoxel @ Ephtracy

# group
o 

# material
mtllib Tile_001.mtl
usemtl palette

# normals
vn -1 0 0
vn 1 0 0
vn 0 0 1
vn 0 0 -1
vn 0 -1 0
vn 0 1 0

# texcoords
vt 0.205078 0.5
vt 0.369141 0.5
vt 0.884766 0.5
vt 0.900391 0.5

# verts
v -0.5 0 0.5
v -0.5 0 -0.5
v -0.5 0.2 0.5
v -0.5 0.2 -0.5
v -0.5 0.4 -0.3
v -0.5 0.4 -0.4
v -0.5 0.5 0.4
v -0.5 0.5 0.2
v -0.5 0.5 -0.1
v -0.5 0.5 -0.2
v -0.5 0.7 0.5
v -0.5 0.7 0.4
v -0.5 0.7 0.2
v -0.5 0.7 -0.1
v -0.5 0.7 -0.2
v -0.5 0.7 -0.3
v -0.5 0.7 -0.4
v -0.5 0.7 -0.5
v -0.5 0.8 0.1
v -0.5 0.8 -0.1
v -0.5 1 0.5
v -0.5 1 0.1
v -0.5 1 -0.1
v -0.5 1 -0.5
v 0.5 0 0.5
v 0.5 0 -0.5
v 0.5 0.2 0.5
v 0.5 0.2 -0.5
v 0.5 0.5 0.4
v 0.5 0.5 0.3
v 0.5 0.5 0.1
v 0.5 0.5 -0.1
v 0.5 0.5 -0.4
v 0.5 0.5 -0.5
v 0.5 0.7 0.5
v 0.5 0.7 0.4
v 0.5 0.7 0.3
v 0.5 0.7 0.1
v 0.5 0.7 -0.1
v 0.5 0.7 -0.4
v 0.5 0.9 0
v 0.5 0.9 -0.2
v 0.5 1 0.5
v 0.5 1 0
v 0.5 1 -0.2
v 0.5 1 -0.5
v -0.5 0 0.5
v -0.5 0.2 0.5
v -0.5 0.7 0.5
v -0.5 1 0.5
v -0.4 0.6 0.5
v -0.4 0.7 0.5
v -0.3 0.6 0.5
v -0.3 0.7 0.5
v -0.3 0.8 0.5
v -0.3 1 0.5
v -0.1 0.4 0.5
v -0.1 0.7 0.5
v -0.1 0.8 0.5
v -0.1 1 0.5
v 0 0.4 0.5
v 0 0.7 0.5
v 0.2 0.9 0.5
v 0.2 1 0.5
v 0.3 0.5 0.5
v 0.3 0.7 0.5
v 0.4 0.5 0.5
v 0.4 0.7 0.5
v 0.4 0.9 0.5
v 0.4 1 0.5
v 0.5 0 0.5
v 0.5 0.2 0.5
v 0.5 0.7 0.5
v 0.5 1 0.5
v -0.5 0 -0.5
v -0.5 0.2 -0.5
v -0.5 0.7 -0.5
v -0.5 1 -0.5
v -0.3 0.4 -0.5
v -0.3 0.7 -0.5
v -0.2 0.4 -0.5
v -0.2 0.7 -0.5
v -0.1 0.9 -0.5
v -0.1 1 -0.5
v 0.1 0.5 -0.5
v 0.1 0.7 -0.5
v 0.1 0.9 -0.5
v 0.1 1 -0.5
v 0.2 0.5 -0.5
v 0.2 0.7 -0.5
v 0.4 0.5 -0.5
v 0.4 0.7 -0.5
v 0.5 0 -0.5
v 0.5 0.2 -0.5
v 0.5 0.5 -0.5
v 0.5 1 -0.5
v -0.5 0 0.5
v 0.5 0 0.5
v -0.5 0 -0.5
v 0.5 0 -0.5
v -0.5 1 0.5
v -0.3 1 0.5
v -0.1 1 0.5
v 0.2 1 0.5
v 0.4 1 0.5
v 0.5 1 0.5
v -0.3 1 0.4
v -0.1 1 0.4
v 0.2 1 0.3
v 0.4 1 0.3
v -0.3 1 0.2
v 0 1 0.2
v -0.5 1 0.1
v -0.4 1 0.1
v -0.3 1 0
v 0 1 0
v 0.2 1 0
v 0.5 1 0
v -0.5 1 -0.1
v -0.4 1 -0.1
v 0.2 1 -0.2
v 0.5 1 -0.2
v -0.1 1 -0.3
v 0.1 1 -0.3
v -0.5 1 -0.5
v -0.1 1 -0.5
v 0.1 1 -0.5
v 0.5 1 -0.5

# faces
f 3/2/1 2/2/1 1/2/1
f 4/2/1 2/2/1 3/2/1
f 5/1/1 4/1/1 3/1/1
f 6/1/1 4/1/1 5/1/1
f 7/1/1 5/1/1 3/1/1
f 8/1/1 5/1/1 7/1/1
f 9/1/1 5/1/1 8/1/1
f 10/1/1 5/1/1 9/1/1
f 11/1/1 7/1/1 3/1/1
f 12/3/1 8/3/1 7/3/1
f 12/1/1 7/1/1 11/1/1
f 13/1/1 9/1/1 8/1/1
f 13/3/1 8/3/1 12/3/1
f 14/3/1 10/3/1 9/3/1
f 14/1/1 9/1/1 13/1/1
f 15/1/1 5/1/1 10/1/1
f 15/3/1 10/3/1 14/3/1
f 16/3/1 6/3/1 5/3/1
f 16/1/1 5/1/1 15/1/1
f 17/1/1 4/1/1 6/1/1
f 17/3/1 6/3/1 16/3/1
f 18/1/1 4/1/1 17/1/1
f 19/3/1 16/3/1 15/3/1
f 19/3/1 15/3/1 14/3/1
f 19/3/1 18/3/1 17/3/1
f 19/3/1 17/3/1 16/3/1
f 19/3/1 13/3/1 12/3/1
f 19/3/1 12/3/1 11/3/1
f 19/3/1 14/3/1 13/3/1
f 20/3/1 18/3/1 19/3/1
f 21/3/1 19/3/1 11/3/1
f 22/4/1 20/4/1 19/4/1
f 22/3/1 19/3/1 21/3/1
f 23/3/1 18/3/1 20/3/1
f 23/4/1 20/4/1 22/4/1
f 24/3/1 18/3/1 23/3/1
f 25/2/2 26/2/2 27/2/2
f 27/2/2 26/2/2 28/2/2
f 27/1/2 28/1/2 29/1/2
f 29/1/2 28/1/2 30/1/2
f 30/1/2 28/1/2 31/1/2
f 31/1/2 28/1/2 32/1/2
f 32/1/2 28/1/2 33/1/2
f 33/1/2 28/1/2 34/1/2
f 27/1/2 29/1/2 35/1/2
f 29/3/2 30/3/2 36/3/2
f 35/1/2 29/1/2 36/1/2
f 30/1/2 31/1/2 37/1/2
f 36/3/2 30/3/2 37/3/2
f 31/3/2 32/3/2 38/3/2
f 37/1/2 31/1/2 38/1/2
f 32/1/2 33/1/2 39/1/2
f 38/3/2 32/3/2 39/3/2
f 33/3/2 34/3/2 40/3/2
f 39/1/2 33/1/2 40/1/2
f 35/3/2 36/3/2 41/3/2
f 36/3/2 37/3/2 41/3/2
f 39/3/2 40/3/2 41/3/2
f 38/3/2 39/3/2 41/3/2
f 37/3/2 38/3/2 41/3/2
f 41/3/2 40/3/2 42/3/2
f 35/3/2 41/3/2 43/3/2
f 41/4/2 42/4/2 44/4/2
f 43/3/2 41/3/2 44/3/2
f 42/3/2 40/3/2 45/3/2
f 44/4/2 42/4/2 45/4/2
f 40/3/2 34/3/2 46/3/2
f 45/3/2 40/3/2 46/3/2
f 51/1/3 49/1/3 48/1/3
f 52/3/3 50/3/3 49/3/3
f 52/1/3 49/1/3 51/1/3
f 53/1/3 51/1/3 48/1/3
f 53/3/3 52/3/3 51/3/3
f 54/3/3 50/3/3 52/3/3
f 54/3/3 52/3/3 53/3/3
f 55/3/3 50/3/3 54/3/3
f 56/3/3 50/3/3 55/3/3
f 57/1/3 53/1/3 48/1/3
f 57/1/3 54/1/3 53/1/3
f 58/3/3 55/3/3 54/3/3
f 58/1/3 54/1/3 57/1/3
f 59/4/3 56/4/3 55/4/3
f 59/3/3 55/3/3 58/3/3
f 60/4/3 56/4/3 59/4/3
f 61/3/3 58/3/3 57/3/3
f 61/1/3 57/1/3 48/1/3
f 61/3/3 60/3/3 59/3/3
f 61/3/3 59/3/3 58/3/3
f 62/3/3 60/3/3 61/3/3
f 63/3/3 60/3/3 62/3/3
f 64/3/3 60/3/3 63/3/3
f 65/1/3 62/1/3 61/1/3
f 66/3/3 63/3/3 62/3/3
f 66/1/3 62/1/3 65/1/3
f 67/1/3 65/1/3 61/1/3
f 67/3/3 66/3/3 65/3/3
f 68/3/3 63/3/3 66/3/3
f 68/3/3 66/3/3 67/3/3
f 69/4/3 64/4/3 63/4/3
f 69/3/3 63/3/3 68/3/3
f 70/4/3 64/4/3 69/4/3
f 71/2/3 48/2/3 47/2/3
f 72/1/3 61/1/3 48/1/3
f 72/2/3 48/2/3 71/2/3
f 72/1/3 67/1/3 61/1/3
f 72/1/3 68/1/3 67/1/3
f 73/3/3 70/3/3 69/3/3
f 73/1/3 68/1/3 72/1/3
f 73/3/3 69/3/3 68/3/3
f 74/3/3 70/3/3 73/3/3
f 76/1/4 77/1/4 79/1/4
f 77/3/4 78/3/4 80/3/4
f 79/1/4 77/1/4 80/1/4
f 76/1/4 79/1/4 81/1/4
f 79/3/4 80/3/4 81/3/4
f 80/3/4 78/3/4 82/3/4
f 81/3/4 80/3/4 82/3/4
f 82/3/4 78/3/4 83/3/4
f 83/3/4 78/3/4 84/3/4
f 81/1/4 82/1/4 85/1/4
f 82/3/4 83/3/4 86/3/4
f 85/1/4 82/1/4 86/1/4
f 83/4/4 84/4/4 87/4/4
f 86/3/4 83/3/4 87/3/4
f 87/4/4 84/4/4 88/4/4
f 81/1/4 85/1/4 89/1/4
f 85/3/4 86/3/4 89/3/4
f 87/3/4 88/3/4 89/3/4
f 86/3/4 87/3/4 89/3/4
f 89/3/4 88/3/4 90/3/4
f 81/1/4 89/1/4 91/1/4
f 89/1/4 90/1/4 91/1/4
f 90/3/4 88/3/4 92/3/4
f 91/1/4 90/1/4 92/1/4
f 75/2/4 76/2/4 93/2/4
f 76/1/4 81/1/4 94/1/4
f 93/2/4 76/2/4 94/2/4
f 81/1/4 91/1/4 94/1/4
f 91/3/4 92/3/4 95/3/4
f 94/1/4 91/1/4 95/1/4
f 92/3/4 88/3/4 96/3/4
f 95/3/4 92/3/4 96/3/4
f 99/2/5 98/2/5 97/2/5
f 100/2/5 98/2/5 99/2/5
f 101/3/6 102/3/6 107/3/6
f 102/4/6 103/4/6 107/4/6
f 103/3/6 104/3/6 108/3/6
f 107/4/6 103/4/6 108/4/6
f 104/4/6 105/4/6 109/4/6
f 108/3/6 104/3/6 109/3/6
f 107/3/6 108/3/6 109/3/6
f 105/3/6 106/3/6 110/3/6
f 109/4/6 105/4/6 110/4/6
f 107/3/6 109/3/6 111/3/6
f 101/3/6 107/3/6 111/3/6
f 109/3/6 110/3/6 111/3/6
f 111/3/6 110/3/6 112/3/6
f 101/3/6 111/3/6 113/3/6
f 113/3/6 111/3/6 114/3/6
f 111/4/6 112/4/6 115/4/6
f 114/3/6 111/3/6 115/3/6
f 112/3/6 110/3/6 116/3/6
f 115/4/6 112/4/6 116/4/6
f 116/3/6 110/3/6 117/3/6
f 110/3/6 106/3/6 118/3/6
f 117/3/6 110/3/6 118/3/6
f 113/4/6 114/4/6 119/4/6
f 116/3/6 117/3/6 120/3/6
f 119/4/6 114/4/6 120/4/6
f 114/3/6 115/3/6 120/3/6
f 115/3/6 116/3/6 120/3/6
f 117/4/6 118/4/6 121/4/6
f 120/3/6 117/3/6 121/3/6
f 119/3/6 120/3/6 121/3/6
f 121/4/6 118/4/6 122/4/6
f 119/3/6 121/3/6 123/3/6
f 121/3/6 122/3/6 123/3/6
f 123/3/6 122/3/6 124/3/6
f 119/3/6 123/3/6 125/3/6
f 123/4/6 124/4/6 126/4/6
f 125/3/6 123/3/6 126/3/6
f 124/3/6 122/3/6 127/3/6
f 126/4/6 124/4/6 127/4/6
f 127/3/6 122/3/6 128/3/6
